{
    "asset" : {
        "generator" : "Khronos glTF Blender I/O v3.3.32",
        "version" : "2.0"
    },
    "scene" : 0,
    "scenes" : [
        {
            "name" : "Scene",
            "nodes" : [
                0
            ]
        }
    ],
    "nodes" : [
        {
            "mesh" : 0,
            "name" : "Sphere",
            "scale" : [
                0.8865863084793091,
                2.16245698928833,
                0.8865863084793091
            ],
            "translation" : [
                0,
                0,
                1.2286734580993652
            ]
        }
    ],
    "materials" : [
        {
            "doubleSided" : true,
            "name" : "Material.001",
            "pbrMetallicRoughness" : {
                "baseColorFactor" : [
                    0.12950417399406433,
                    0.12950417399406433,
                    0.12950417399406433,
                    1
                ],
                "roughnessFactor" : 0.10218977928161621
            }
        }
    ],
    "meshes" : [
        {
            "name" : "Sphere.003",
            "primitives" : [
                {
                    "attributes" : {
                        "POSITION" : 0,
                        "NORMAL" : 1,
                        "TEXCOORD_0" : 2
                    },
                    "indices" : 3,
                    "material" : 0
                }
            ]
        }
    ],
    "accessors" : [
        {
            "bufferView" : 0,
            "componentType" : 5126,
            "count" : 41924,
            "max" : [
                2.2379586696624756,
                0.265529990196228,
                2.0294642448425293
            ],
            "min" : [
                -2.2300353050231934,
                -0.26553961634635925,
                -2.313281536102295
            ],
            "type" : "VEC3"
        },
        {
            "bufferView" : 1,
            "componentType" : 5126,
            "count" : 41924,
            "type" : "VEC3"
        },
        {
            "bufferView" : 2,
            "componentType" : 5126,
            "count" : 41924,
            "type" : "VEC2"
        },
        {
            "bufferView" : 3,
            "componentType" : 5123,
            "count" : 238080,
            "type" : "SCALAR"
        }
    ],
    "bufferViews" : [
        {
            "buffer" : 0,
            "byteLength" : 503088,
            "byteOffset" : 0,
            "target" : 34962
        },
        {
            "buffer" : 0,
            "byteLength" : 503088,
            "byteOffset" : 503088,
            "target" : 34962
        },
        {
            "buffer" : 0,
            "byteLength" : 335392,
            "byteOffset" : 1006176,
            "target" : 34962
        },
        {
            "buffer" : 0,
            "byteLength" : 476160,
            "byteOffset" : 1341568,
            "target" : 34963
        }
    ],
    "buffers" : [
        {
            "byteLength" : 1817728,
            "uri" : "data:application/octet-stream;base64,"
        }
    ]
}
