<svg width="1867" height="224" viewBox="0 0 1867 224" fill="none" xmlns="http://www.w3.org/2000/svg">
<path d="M87.3 223.3C37.8 223.3 0 182.8 0 133.3C0 83.8 37.8 43 87.3 43C136.5 43 174 83.8 174 133.3C174 182.8 136.5 223.3 87.3 223.3ZM87 205C126.6 205 156 172.9 156 133C156 93.4 126.6 61 87 61C47.7 61 18 93.4 18 133C18 172.9 47.7 205 87 205ZM88.8 187.3C57.9 187.3 38.4 163.3 38.4 132.4C38.4 102.1 57.9 78.1 88.8 78.1C112.5 78.1 128.7 91.9 135.9 109.9L120.3 124C116.7 108.4 106.5 96.7 88.8 96.7C70.5 96.7 59.1 108.1 59.1 132.4C59.1 157 70.5 168.7 88.8 168.7C106.5 168.7 116.7 156.7 120.3 141.4L135.9 155.5C128.7 173.2 112.5 187.3 88.8 187.3Z" fill="#CCB5E2"/>
<path d="M229.815 218.033H204V19.2449H229.815V218.033Z" fill="#CCB5E2"/>
<path d="M298.29 221C273.959 221 260.309 207.055 260.309 188.066C260.309 168.781 274.849 156.616 295.322 147.419L347.248 124.276C346.358 107.364 338.347 94.903 315.796 94.903C295.322 94.903 281.673 106.771 274.255 122.496L256.749 104.397C265.354 89.5625 286.717 71.4638 318.763 71.4638C354.073 71.4638 373.063 92.5294 373.063 126.65V185.693C373.063 192.517 375.733 194.594 381.074 194.594H390.273V218.033H373.656C358.82 218.033 348.138 210.912 348.138 190.737V180.649C343.391 199.638 327.962 221 298.29 221ZM286.421 183.913C286.421 193.704 293.245 199.638 306.598 199.638C330.929 199.638 348.138 183.616 348.138 162.847V142.968L306.301 162.55C292.652 169.078 286.421 175.012 286.421 183.913Z" fill="#CCB5E2"/>
<path d="M428.728 218.456C419.573 218.456 413.023 216.202 409.079 211.695C405.135 207.188 403.092 202.328 402.951 197.117C402.388 186.694 406.332 175.356 414.783 163.102C423.094 150.848 435.067 135.566 450.702 117.256C456.196 110.777 461.9 103.805 467.816 96.3402C473.873 88.8752 480.142 81.6215 486.621 74.5791C491.41 75.4242 497.044 75.8468 503.524 75.8468C505.496 75.8468 508.243 75.7763 511.764 75.6355C515.286 75.4946 517.61 75.3538 518.737 75.2129C506.764 88.0301 494.791 101.552 482.818 115.777C470.845 130.003 460.14 142.891 450.702 154.44C447.603 158.243 443.589 163.032 438.659 168.807C433.729 174.441 429.362 180.497 425.559 186.976C421.897 193.314 420.136 199.511 420.277 205.568C420.277 207.54 420.981 209.3 422.39 210.85C423.798 212.399 426.475 213.174 430.419 213.174C433.236 213.174 437.602 212.258 443.518 210.427C449.575 208.596 455.984 205.498 462.746 201.131C472.183 194.793 482.888 186.131 494.861 175.145C506.834 164.018 519.863 149.722 533.949 132.256C537.048 128.454 539.584 125.355 541.556 122.96C543.528 120.566 545.359 118.383 547.049 116.411C551.979 110.355 557.332 103.876 563.107 96.974C568.882 90.0724 575.15 82.6075 581.911 74.5791C586.419 75.0017 589.588 75.3538 591.419 75.6355C593.251 75.7763 595.716 75.8468 598.814 75.8468C605.435 75.8468 610.506 75.6355 614.027 75.2129C605.716 84.2272 596.209 95.143 585.503 107.96C574.939 120.777 564.445 133.665 554.022 146.623C543.598 159.44 534.442 170.708 526.554 180.427C519.793 188.314 515.497 193.737 513.666 196.695C511.975 199.511 511.13 202.258 511.13 204.934C511.271 206.624 511.835 208.314 512.821 210.005C513.947 211.695 517.046 212.54 522.117 212.54C529.583 212.54 537.682 210.075 546.415 205.145C555.289 200.216 564.022 194.089 572.615 186.765C581.348 179.3 589.447 171.694 596.913 163.947C604.519 156.201 610.928 149.37 616.14 143.454C621.352 137.538 624.732 133.806 626.282 132.256L630.507 135.848C628.817 137.679 625.225 141.623 619.732 147.679C614.379 153.736 607.759 160.778 599.871 168.807C591.983 176.694 583.461 184.441 574.305 192.047C565.29 199.652 556.134 205.99 546.838 211.061C537.541 215.991 528.808 218.456 520.638 218.456C515.004 218.456 510.285 216.906 506.482 213.808C502.679 210.568 500.707 206.131 500.566 200.497C500.425 195.427 501.129 190.145 502.679 184.652C504.369 179.159 507.186 172.962 511.13 166.06C493.523 185.075 477.747 198.807 463.802 207.258C456.618 211.624 450.068 214.582 444.152 216.132C438.236 217.681 433.095 218.456 428.728 218.456Z" fill="#CCB5E2"/>
<path d="M648.016 218.033H622.201V74.4308H648.016V112.705C653.653 90.4525 668.489 71.1671 692.82 71.1671C708.25 71.1671 723.086 82.145 723.086 102.32C723.086 114.485 719.822 123.386 717.448 126.946H689.26C694.007 122.793 697.865 113.892 697.865 105.881C697.865 97.5733 693.414 90.4526 683.029 90.4526C664.632 90.4526 648.016 112.112 648.016 136.738V218.033Z" fill="#CCB5E2"/>
<path d="M775.603 221C751.272 221 737.623 207.055 737.623 188.066C737.623 168.781 752.162 156.616 772.635 147.419L824.561 124.276C823.671 107.364 815.66 94.903 793.109 94.903C772.635 94.903 758.986 106.771 751.568 122.496L734.062 104.397C742.667 89.5625 764.031 71.4638 796.076 71.4638C831.386 71.4638 850.376 92.5294 850.376 126.65V185.693C850.376 192.517 853.046 194.594 858.387 194.594H867.586V218.033H850.969C836.133 218.033 825.452 210.912 825.452 190.737V180.649C820.704 199.638 805.275 221 775.603 221ZM763.734 183.913C763.734 193.704 770.558 199.638 783.911 199.638C808.242 199.638 825.452 183.616 825.452 162.847V142.968L783.614 162.55C769.965 169.078 763.734 175.012 763.734 183.913Z" fill="#CCB5E2"/>
<path d="M988.49 218.033H962.675V19.2449H988.49V218.033Z" fill="#CCB5E2"/>
<path d="M1056.96 221C1032.63 221 1018.98 207.055 1018.98 188.066C1018.98 168.781 1033.52 156.616 1054 147.419L1105.92 124.276C1105.03 107.364 1097.02 94.903 1074.47 94.903C1054 94.903 1040.35 106.771 1032.93 122.496L1015.42 104.397C1024.03 89.5625 1045.39 71.4638 1077.44 71.4638C1112.75 71.4638 1131.74 92.5294 1131.74 126.65V185.693C1131.74 192.517 1134.41 194.594 1139.75 194.594H1148.95V218.033H1132.33C1117.5 218.033 1106.81 210.912 1106.81 190.737V180.649C1102.07 199.638 1086.64 221 1056.96 221ZM1045.1 183.913C1045.1 193.704 1051.92 199.638 1065.27 199.638C1089.6 199.638 1106.81 183.616 1106.81 162.847V142.968L1064.98 162.55C1051.33 169.078 1045.1 175.012 1045.1 183.913Z" fill="#CCB5E2"/>
<path d="M1239.23 218.033H1206.59L1154.66 74.4308H1182.55L1211.04 159.583L1223.5 199.044L1235.67 159.583L1263.85 74.4308H1291.45L1239.23 218.033Z" fill="#CCB5E2"/>
<path d="M1363.03 221C1323.27 221 1295.38 191.627 1295.38 146.232C1295.38 100.837 1323.27 71.4638 1363.03 71.4638C1402.79 71.4638 1430.98 100.837 1430.98 146.232C1430.98 191.627 1402.79 221 1363.03 221ZM1363.03 199.341C1387.66 199.341 1404.87 182.429 1404.87 146.232C1404.87 109.738 1387.66 93.1228 1363.03 93.1228C1338.7 93.1228 1321.79 109.738 1321.79 146.232C1321.79 182.429 1338.7 199.341 1363.03 199.341Z" fill="#CCB5E2"/>
<path d="M1489.78 218.033H1463.97V74.4308H1489.78V112.705C1495.42 90.4525 1510.26 71.1671 1534.59 71.1671C1550.02 71.1671 1564.85 82.145 1564.85 102.32C1564.85 114.485 1561.59 123.386 1559.22 126.946H1531.03C1535.77 122.793 1539.63 113.892 1539.63 105.881C1539.63 97.5733 1535.18 90.4526 1524.8 90.4526C1506.4 90.4526 1489.78 112.112 1489.78 136.738V218.033Z" fill="#CCB5E2"/>
<path d="M1686.4 32.9585C1682.45 32.9585 1679.28 31.7613 1676.89 29.3668C1674.63 26.8316 1673.51 23.6625 1673.51 19.8596C1673.51 14.9299 1675.55 10.4228 1679.64 6.33817C1683.86 2.11272 1688.86 0 1694.64 0C1698.58 0 1701.68 1.33806 1703.93 4.01417C1706.33 6.54944 1707.53 9.6481 1707.53 13.3102C1707.53 18.5215 1705.27 23.0991 1700.76 27.0429C1696.4 30.9866 1691.61 32.9585 1686.4 32.9585ZM1578.43 218.456C1569.84 218.456 1562.93 216.906 1557.72 213.808C1552.37 210.568 1549.69 206.272 1549.69 200.92C1549.69 196.695 1550.75 191.835 1552.86 186.342C1554.98 180.708 1559.06 173.384 1565.12 164.37C1571.03 155.356 1579.7 143.665 1591.11 129.299C1602.66 114.791 1617.8 96.6219 1636.53 74.7904C1637.8 74.9312 1640.83 75.0721 1645.62 75.2129C1650.41 75.3538 1654.14 75.4242 1656.82 75.4242C1659.21 75.4242 1660.97 75.4242 1662.1 75.4242C1663.37 75.2834 1664.56 75.1425 1665.69 75.0017C1645.12 99.2276 1628.29 119.158 1615.19 134.792C1602.23 150.426 1592.23 162.891 1585.19 172.187C1578.15 181.483 1573.29 188.596 1570.61 193.525C1567.93 198.455 1566.6 202.399 1566.6 205.357C1566.6 209.019 1568.57 211.131 1572.51 211.695C1576.46 212.258 1579.63 212.54 1582.02 212.54C1589.63 212.54 1597.94 210.005 1606.95 204.934C1615.97 199.723 1624.91 193.314 1633.79 185.708C1642.8 177.962 1651.11 170.145 1658.72 162.257C1666.46 154.37 1672.8 147.609 1677.73 141.975C1682.66 136.2 1685.55 132.89 1686.4 132.045L1690.62 135.848C1689.07 137.538 1685.69 141.412 1680.48 147.468C1675.27 153.525 1668.79 160.567 1661.04 168.595C1653.29 176.483 1644.77 184.229 1635.48 191.835C1626.32 199.441 1616.81 205.779 1606.95 210.85C1597.23 215.92 1587.73 218.456 1578.43 218.456Z" fill="#CCB5E2"/>
<path d="M1707.92 218.033H1682.1V74.4308H1707.92V112.705C1713.56 90.4525 1728.99 71.4638 1757.17 71.4638C1785.36 71.4638 1802.87 88.3757 1802.87 118.936V218.033H1777.35V125.166C1777.35 106.474 1769.93 93.4195 1745.6 93.4195C1718.01 93.4195 1707.92 112.705 1707.92 136.738V218.033Z" fill="#CCB5E2"/>
<path d="M1867 51.2883H1841.19V19.2449H1867V51.2883ZM1867 218.033H1841.19V74.4308H1867V218.033Z" fill="#CCB5E2"/>
</svg>
