<svg width="1862" height="248" viewBox="0 0 1862 248" fill="none" xmlns="http://www.w3.org/2000/svg">
<path d="M28.9037 244.671H0V21.596H28.9037V244.671Z" fill="#DDC9F1"/>
<path d="M105.573 248C78.33 248 63.0477 232.352 63.0477 211.043C63.0477 189.401 79.3267 175.751 102.25 165.429L160.39 139.459C159.393 120.481 150.423 106.498 125.174 106.498C102.25 106.498 86.9679 119.815 78.6623 137.462L59.0609 117.152C68.6955 100.504 92.6158 80.1947 128.496 80.1947C168.031 80.1947 189.294 103.834 189.294 142.123V208.379C189.294 216.037 192.284 218.368 198.264 218.368H208.563V244.671H189.958C173.347 244.671 161.387 236.68 161.387 214.039V202.719C156.071 224.028 138.795 248 105.573 248ZM92.2835 206.382C92.2835 217.369 99.9247 224.028 114.875 224.028C142.117 224.028 161.387 206.049 161.387 182.742V160.435L114.543 182.409C99.2603 189.734 92.2835 196.393 92.2835 206.382Z" fill="#DDC9F1"/>
<path d="M251.62 245.145C241.369 245.145 234.035 242.616 229.619 237.558C225.203 232.5 222.916 227.047 222.759 221.199C222.128 209.503 226.544 196.78 236.006 183.029C245.312 169.278 258.717 152.129 276.223 131.582C282.374 124.311 288.762 116.487 295.386 108.11C302.167 99.7333 309.186 91.5934 316.44 83.6906C321.803 84.6389 328.111 85.1131 335.366 85.1131C337.574 85.1131 340.649 85.0341 344.592 84.876C348.535 84.718 351.137 84.5599 352.399 84.4019C338.993 98.7849 325.588 113.958 312.182 129.922C298.776 145.886 286.79 160.348 276.223 173.308C272.754 177.576 268.259 182.95 262.739 189.43C257.219 195.752 252.33 202.549 248.072 209.819C243.971 216.932 242 223.886 242.157 230.683C242.157 232.895 242.946 234.871 244.523 236.61C246.1 238.348 249.097 239.218 253.513 239.218C256.667 239.218 261.556 238.19 268.18 236.136C274.962 234.081 282.138 230.604 289.708 225.704C300.275 218.591 312.261 208.871 325.667 196.543C339.072 184.056 353.661 168.013 369.432 148.414C372.902 144.147 375.741 140.67 377.949 137.983C380.157 135.296 382.207 132.846 384.099 130.633C389.619 123.837 395.613 116.566 402.079 108.821C408.545 101.077 415.563 92.6998 423.134 83.6906C428.18 84.1648 431.729 84.5599 433.779 84.876C435.83 85.0341 438.59 85.1131 442.059 85.1131C449.472 85.1131 455.149 84.876 459.092 84.4019C449.787 94.5174 439.142 106.767 427.155 121.15C415.327 135.533 403.577 149.995 391.906 164.536C380.236 178.919 369.984 191.564 361.152 202.47C353.582 211.321 348.772 217.406 346.721 220.725C344.829 223.886 343.883 226.968 343.883 229.971C344.04 231.868 344.671 233.765 345.775 235.661C347.037 237.558 350.506 238.506 356.184 238.506C364.543 238.506 373.612 235.74 383.39 230.208C393.326 224.676 403.104 217.801 412.725 209.582C422.503 201.205 431.571 192.67 439.93 183.977C448.447 175.284 455.623 167.618 461.458 160.98C467.293 154.342 471.079 150.153 472.813 148.414L477.545 152.445C475.652 154.5 471.631 158.925 465.48 165.722C459.487 172.518 452.074 180.421 443.242 189.43C434.41 198.281 424.868 206.974 414.617 215.509C404.523 224.044 394.272 231.157 383.863 236.847C373.454 242.379 363.676 245.145 354.528 245.145C348.22 245.145 342.936 243.406 338.678 239.929C334.42 236.294 332.212 231.315 332.054 224.993C331.896 219.303 332.685 213.375 334.42 207.211C336.312 201.047 339.467 194.093 343.883 186.348C324.168 207.685 306.504 223.096 290.891 232.579C282.847 237.479 275.514 240.798 268.89 242.537C262.266 244.275 256.509 245.145 251.62 245.145Z" fill="#DDC9F1"/>
<path d="M497.148 244.671H468.244V83.5242H497.148V126.474C503.46 101.503 520.072 79.8618 547.314 79.8618C564.59 79.8618 581.201 92.1808 581.201 114.821C581.201 128.472 577.547 138.46 574.889 142.456H543.327C548.643 137.795 552.962 127.806 552.962 118.817C552.962 109.494 547.979 101.503 536.351 101.503C515.753 101.503 497.148 125.808 497.148 153.443V244.671Z" fill="#DDC9F1"/>
<path d="M640.003 248C612.76 248 597.478 232.352 597.478 211.043C597.478 189.401 613.757 175.751 636.68 165.429L694.82 139.459C693.823 120.481 684.853 106.498 659.604 106.498C636.68 106.498 621.398 119.815 613.092 137.462L593.491 117.152C603.126 100.504 627.046 80.1947 662.926 80.1947C702.461 80.1947 723.724 103.834 723.724 142.123V208.379C723.724 216.037 726.714 218.368 732.694 218.368H742.993V244.671H724.388C707.777 244.671 695.817 236.68 695.817 214.039V202.719C690.501 224.028 673.225 248 640.003 248ZM626.714 206.382C626.714 217.369 634.355 224.028 649.305 224.028C676.547 224.028 695.817 206.049 695.817 182.742V160.435L648.973 182.409C633.69 189.734 626.714 196.393 626.714 206.382Z" fill="#DDC9F1"/>
<path d="M878.364 244.671H849.461V21.596H878.364V244.671Z" fill="#DDC9F1"/>
<path d="M955.033 248C927.791 248 912.508 232.352 912.508 211.043C912.508 189.401 928.787 175.751 951.711 165.429L1009.85 139.459C1008.85 120.481 999.884 106.498 974.635 106.498C951.711 106.498 936.429 119.815 928.123 137.462L908.522 117.152C918.156 100.504 942.076 80.1947 977.957 80.1947C1017.49 80.1947 1038.75 103.834 1038.75 142.123V208.379C1038.75 216.037 1041.74 218.368 1047.72 218.368H1058.02V244.671H1039.42C1022.81 244.671 1010.85 236.68 1010.85 214.039V202.719C1005.53 224.028 988.256 248 955.033 248ZM941.744 206.382C941.744 217.369 949.385 224.028 964.336 224.028C991.578 224.028 1010.85 206.049 1010.85 182.742V160.435L964.003 182.409C948.721 189.734 941.744 196.393 941.744 206.382Z" fill="#DDC9F1"/>
<path d="M1159.11 244.671H1122.56L1064.42 83.5242H1095.65L1127.54 179.08L1141.5 223.362L1155.12 179.08L1186.68 83.5242H1217.58L1159.11 244.671Z" fill="#DDC9F1"/>
<path d="M1297.72 248C1253.21 248 1221.98 215.038 1221.98 164.097C1221.98 113.156 1253.21 80.1947 1297.72 80.1947C1342.24 80.1947 1373.8 113.156 1373.8 164.097C1373.8 215.038 1342.24 248 1297.72 248ZM1297.72 223.695C1325.3 223.695 1344.57 204.717 1344.57 164.097C1344.57 123.145 1325.3 104.5 1297.72 104.5C1270.48 104.5 1251.54 123.145 1251.54 164.097C1251.54 204.717 1270.48 223.695 1297.72 223.695Z" fill="#DDC9F1"/>
<path d="M1439.64 244.671H1410.74V83.5242H1439.64V126.474C1445.96 101.503 1462.57 79.8618 1489.81 79.8618C1507.09 79.8618 1523.7 92.1808 1523.7 114.821C1523.7 128.472 1520.04 138.46 1517.39 142.456H1485.82C1491.14 137.795 1495.46 127.806 1495.46 118.817C1495.46 109.494 1490.47 101.503 1478.85 101.503C1458.25 101.503 1439.64 125.808 1439.64 153.443V244.671Z" fill="#DDC9F1"/>
<path d="M1659.78 36.9851C1655.37 36.9851 1651.82 35.6416 1649.14 32.9547C1646.62 30.1097 1645.35 26.5534 1645.35 22.2859C1645.35 16.7539 1647.64 11.6961 1652.21 7.11252C1656.95 2.37084 1662.54 0 1669.01 0C1673.43 0 1676.9 1.50153 1679.42 4.50459C1682.1 7.3496 1683.44 10.8268 1683.44 14.9363C1683.44 20.7844 1680.92 25.9212 1675.87 30.3467C1670.98 34.7723 1665.62 36.9851 1659.78 36.9851ZM1538.9 245.145C1529.28 245.145 1521.55 243.406 1515.71 239.929C1509.72 236.294 1506.72 231.473 1506.72 225.467C1506.72 220.725 1507.91 215.272 1510.27 209.108C1512.64 202.786 1517.21 194.567 1523.99 184.451C1530.62 174.336 1540.32 161.217 1553.09 145.095C1566.02 128.816 1582.98 108.426 1603.95 83.9277C1605.37 84.0857 1608.76 84.2438 1614.13 84.4019C1619.49 84.5599 1623.67 84.6389 1626.66 84.6389C1629.35 84.6389 1631.32 84.6389 1632.58 84.6389C1634 84.4809 1635.34 84.3228 1636.6 84.1648C1613.57 111.35 1594.73 133.715 1580.06 151.26C1565.55 168.804 1554.35 182.792 1546.47 193.223C1538.58 203.655 1533.14 211.637 1530.14 217.169C1527.15 222.701 1525.65 227.126 1525.65 230.446C1525.65 234.555 1527.86 236.926 1532.27 237.558C1536.69 238.19 1540.24 238.506 1542.92 238.506C1551.44 238.506 1560.74 235.661 1570.83 229.971C1580.93 224.123 1590.94 216.932 1600.88 208.397C1610.97 199.704 1620.28 190.932 1628.79 182.08C1637.47 173.229 1644.57 165.643 1650.09 159.32C1655.61 152.84 1658.84 149.126 1659.78 148.177L1664.52 152.445C1662.78 154.342 1659 158.688 1653.16 165.485C1647.33 172.281 1640.07 180.184 1631.4 189.193C1622.72 198.044 1613.18 206.737 1602.77 215.272C1592.52 223.807 1581.87 230.92 1570.83 236.61C1559.95 242.3 1549.31 245.145 1538.9 245.145Z" fill="#DDC9F1"/>
<path d="M1683.88 244.671H1654.98V83.5242H1683.88V126.474C1690.2 101.503 1707.47 80.1947 1739.03 80.1947C1770.59 80.1947 1790.2 99.1727 1790.2 133.466V244.671H1761.62V140.458C1761.62 119.482 1753.32 104.833 1726.08 104.833C1695.18 104.833 1683.88 126.474 1683.88 153.443V244.671Z" fill="#DDC9F1"/>
<path d="M1862 57.5543H1833.1V21.596H1862V57.5543ZM1862 244.671H1833.1V83.5242H1862V244.671Z" fill="#DDC9F1"/>
</svg>
